<svg width="53" height="23" viewBox="0 0 53 23" fill="none" xmlns="http://www.w3.org/2000/svg">
<path d="M11.4922 15.2578V18H2.90234V15.2578H11.4922ZM4.03906 0.9375V18H0.523438V0.9375H4.03906ZM12.7578 11.7891V11.543C12.7578 10.6133 12.8906 9.75781 13.1562 8.97656C13.4219 8.1875 13.8086 7.50391 14.3164 6.92578C14.8242 6.34766 15.4492 5.89844 16.1914 5.57812C16.9336 5.25 17.7852 5.08594 18.7461 5.08594C19.707 5.08594 20.5625 5.25 21.3125 5.57812C22.0625 5.89844 22.6914 6.34766 23.1992 6.92578C23.7148 7.50391 24.1055 8.1875 24.3711 8.97656C24.6367 9.75781 24.7695 10.6133 24.7695 11.543V11.7891C24.7695 12.7109 24.6367 13.5664 24.3711 14.3555C24.1055 15.1367 23.7148 15.8203 23.1992 16.4062C22.6914 16.9844 22.0664 17.4336 21.3242 17.7539C20.582 18.0742 19.7305 18.2344 18.7695 18.2344C17.8086 18.2344 16.9531 18.0742 16.2031 17.7539C15.4609 17.4336 14.832 16.9844 14.3164 16.4062C13.8086 15.8203 13.4219 15.1367 13.1562 14.3555C12.8906 13.5664 12.7578 12.7109 12.7578 11.7891ZM16.1328 11.543V11.7891C16.1328 12.3203 16.1797 12.8164 16.2734 13.2773C16.3672 13.7383 16.5156 14.1445 16.7188 14.4961C16.9297 14.8398 17.2031 15.1094 17.5391 15.3047C17.875 15.5 18.2852 15.5977 18.7695 15.5977C19.2383 15.5977 19.6406 15.5 19.9766 15.3047C20.3125 15.1094 20.582 14.8398 20.7852 14.4961C20.9883 14.1445 21.1367 13.7383 21.2305 13.2773C21.332 12.8164 21.3828 12.3203 21.3828 11.7891V11.543C21.3828 11.0273 21.332 10.543 21.2305 10.0898C21.1367 9.62891 20.9844 9.22266 20.7734 8.87109C20.5703 8.51172 20.3008 8.23047 19.9648 8.02734C19.6289 7.82422 19.2227 7.72266 18.7461 7.72266C18.2695 7.72266 17.8633 7.82422 17.5273 8.02734C17.1992 8.23047 16.9297 8.51172 16.7188 8.87109C16.5156 9.22266 16.3672 9.62891 16.2734 10.0898C16.1797 10.543 16.1328 11.0273 16.1328 11.543ZM34.8711 5.32031H37.9297V17.5781C37.9297 18.7344 37.6719 19.7148 37.1562 20.5195C36.6484 21.332 35.9375 21.9453 35.0234 22.3594C34.1094 22.7812 33.0469 22.9922 31.8359 22.9922C31.3047 22.9922 30.7422 22.9219 30.1484 22.7812C29.5625 22.6406 29 22.4219 28.4609 22.125C27.9297 21.8281 27.4844 21.4531 27.125 21L28.6133 19.0078C29.0039 19.4609 29.457 19.8125 29.9727 20.0625C30.4883 20.3203 31.0586 20.4492 31.6836 20.4492C32.293 20.4492 32.8086 20.3359 33.2305 20.1094C33.6523 19.8906 33.9766 19.5664 34.2031 19.1367C34.4297 18.7148 34.543 18.2031 34.543 17.6016V8.25L34.8711 5.32031ZM26.3398 11.8125V11.5664C26.3398 10.5977 26.457 9.71875 26.6914 8.92969C26.9336 8.13281 27.2734 7.44922 27.7109 6.87891C28.1562 6.30859 28.6953 5.86719 29.3281 5.55469C29.9609 5.24219 30.6758 5.08594 31.4727 5.08594C32.3164 5.08594 33.0234 5.24219 33.5938 5.55469C34.1641 5.86719 34.6328 6.3125 35 6.89062C35.3672 7.46094 35.6523 8.13672 35.8555 8.91797C36.0664 9.69141 36.2305 10.5391 36.3477 11.4609V12C36.2305 12.8828 36.0547 13.7031 35.8203 14.4609C35.5859 15.2188 35.2773 15.8828 34.8945 16.4531C34.5117 17.0156 34.0352 17.4531 33.4648 17.7656C32.9023 18.0781 32.2305 18.2344 31.4492 18.2344C30.668 18.2344 29.9609 18.0742 29.3281 17.7539C28.7031 17.4336 28.168 16.9844 27.7227 16.4062C27.2773 15.8281 26.9336 15.1484 26.6914 14.3672C26.457 13.5859 26.3398 12.7344 26.3398 11.8125ZM29.7148 11.5664V11.8125C29.7148 12.3359 29.7656 12.8242 29.8672 13.2773C29.9688 13.7305 30.125 14.1328 30.3359 14.4844C30.5547 14.8281 30.8242 15.0977 31.1445 15.293C31.4727 15.4805 31.8594 15.5742 32.3047 15.5742C32.9219 15.5742 33.4258 15.4453 33.8164 15.1875C34.207 14.9219 34.5 14.5586 34.6953 14.0977C34.8906 13.6367 35.0039 13.1055 35.0352 12.5039V10.9688C35.0195 10.4766 34.9531 10.0352 34.8359 9.64453C34.7188 9.24609 34.5547 8.90625 34.3438 8.625C34.1328 8.34375 33.8594 8.125 33.5234 7.96875C33.1875 7.8125 32.7891 7.73438 32.3281 7.73438C31.8828 7.73438 31.4961 7.83594 31.168 8.03906C30.8477 8.23438 30.5781 8.50391 30.3594 8.84766C30.1484 9.19141 29.9883 9.59766 29.8789 10.0664C29.7695 10.5273 29.7148 11.0273 29.7148 11.5664ZM40.0156 11.7891V11.543C40.0156 10.6133 40.1484 9.75781 40.4141 8.97656C40.6797 8.1875 41.0664 7.50391 41.5742 6.92578C42.082 6.34766 42.707 5.89844 43.4492 5.57812C44.1914 5.25 45.043 5.08594 46.0039 5.08594C46.9648 5.08594 47.8203 5.25 48.5703 5.57812C49.3203 5.89844 49.9492 6.34766 50.457 6.92578C50.9727 7.50391 51.3633 8.1875 51.6289 8.97656C51.8945 9.75781 52.0273 10.6133 52.0273 11.543V11.7891C52.0273 12.7109 51.8945 13.5664 51.6289 14.3555C51.3633 15.1367 50.9727 15.8203 50.457 16.4062C49.9492 16.9844 49.3242 17.4336 48.582 17.7539C47.8398 18.0742 46.9883 18.2344 46.0273 18.2344C45.0664 18.2344 44.2109 18.0742 43.4609 17.7539C42.7188 17.4336 42.0898 16.9844 41.5742 16.4062C41.0664 15.8203 40.6797 15.1367 40.4141 14.3555C40.1484 13.5664 40.0156 12.7109 40.0156 11.7891ZM43.3906 11.543V11.7891C43.3906 12.3203 43.4375 12.8164 43.5312 13.2773C43.625 13.7383 43.7734 14.1445 43.9766 14.4961C44.1875 14.8398 44.4609 15.1094 44.7969 15.3047C45.1328 15.5 45.543 15.5977 46.0273 15.5977C46.4961 15.5977 46.8984 15.5 47.2344 15.3047C47.5703 15.1094 47.8398 14.8398 48.043 14.4961C48.2461 14.1445 48.3945 13.7383 48.4883 13.2773C48.5898 12.8164 48.6406 12.3203 48.6406 11.7891V11.543C48.6406 11.0273 48.5898 10.543 48.4883 10.0898C48.3945 9.62891 48.2422 9.22266 48.0312 8.87109C47.8281 8.51172 47.5586 8.23047 47.2227 8.02734C46.8867 7.82422 46.4805 7.72266 46.0039 7.72266C45.5273 7.72266 45.1211 7.82422 44.7852 8.02734C44.457 8.23047 44.1875 8.51172 43.9766 8.87109C43.7734 9.22266 43.625 9.62891 43.5312 10.0898C43.4375 10.543 43.3906 11.0273 43.3906 11.543Z" fill="black"/>
</svg>
