<svg width="98" height="13" viewBox="0 0 98 13" fill="none" xmlns="http://www.w3.org/2000/svg">
<path d="M5.88 12L3.836 8.29H3.262V12H0.868V2.172H4.886C5.66067 2.172 6.31867 2.30733 6.86 2.578C7.41067 2.84867 7.82133 3.222 8.092 3.698C8.36267 4.16467 8.498 4.68733 8.498 5.266C8.498 5.91933 8.31133 6.50267 7.938 7.016C7.574 7.52933 7.03267 7.89333 6.314 8.108L8.582 12H5.88ZM3.262 6.596H4.746C5.18467 6.596 5.51133 6.48867 5.726 6.274C5.95 6.05933 6.062 5.756 6.062 5.364C6.062 4.99067 5.95 4.69667 5.726 4.482C5.51133 4.26733 5.18467 4.16 4.746 4.16H3.262V6.596ZM9.52481 8.08C9.52481 7.27733 9.67415 6.57267 9.97281 5.966C10.2808 5.35933 10.6961 4.89267 11.2188 4.566C11.7415 4.23933 12.3248 4.076 12.9688 4.076C13.5195 4.076 14.0001 4.188 14.4108 4.412C14.8308 4.636 15.1528 4.93 15.3768 5.294V4.188H17.7708V12H15.3768V10.894C15.1435 11.258 14.8168 11.552 14.3968 11.776C13.9861 12 13.5055 12.112 12.9548 12.112C12.3201 12.112 11.7415 11.9487 11.2188 11.622C10.6961 11.286 10.2808 10.8147 9.97281 10.208C9.67415 9.592 9.52481 8.88267 9.52481 8.08ZM15.3768 8.094C15.3768 7.49667 15.2088 7.02533 14.8728 6.68C14.5461 6.33467 14.1448 6.162 13.6688 6.162C13.1928 6.162 12.7868 6.33467 12.4508 6.68C12.1241 7.016 11.9608 7.48267 11.9608 8.08C11.9608 8.67733 12.1241 9.15333 12.4508 9.508C12.7868 9.85333 13.1928 10.026 13.6688 10.026C14.1448 10.026 14.5461 9.85333 14.8728 9.508C15.2088 9.16267 15.3768 8.69133 15.3768 8.094ZM20.7068 3.376C20.2868 3.376 19.9414 3.25467 19.6708 3.012C19.4094 2.76 19.2788 2.452 19.2788 2.088C19.2788 1.71467 19.4094 1.40667 19.6708 1.164C19.9414 0.911999 20.2868 0.785999 20.7068 0.785999C21.1174 0.785999 21.4534 0.911999 21.7148 1.164C21.9854 1.40667 22.1208 1.71467 22.1208 2.088C22.1208 2.452 21.9854 2.76 21.7148 3.012C21.4534 3.25467 21.1174 3.376 20.7068 3.376ZM21.8968 4.188V12H19.5028V4.188H21.8968ZM28.3917 4.104C29.3063 4.104 30.0343 4.40267 30.5757 5C31.1263 5.588 31.4017 6.4 31.4017 7.436V12H29.0217V7.758C29.0217 7.23533 28.8863 6.82933 28.6157 6.54C28.345 6.25067 27.981 6.106 27.5237 6.106C27.0663 6.106 26.7023 6.25067 26.4317 6.54C26.161 6.82933 26.0257 7.23533 26.0257 7.758V12H23.6317V4.188H26.0257V5.224C26.2683 4.87867 26.595 4.608 27.0057 4.412C27.4163 4.20667 27.8783 4.104 28.3917 4.104ZM35.4593 5.294C35.6833 4.93 36.0053 4.636 36.4253 4.412C36.8453 4.188 37.3259 4.076 37.8673 4.076C38.5113 4.076 39.0946 4.23933 39.6173 4.566C40.1399 4.89267 40.5506 5.35933 40.8493 5.966C41.1573 6.57267 41.3113 7.27733 41.3113 8.08C41.3113 8.88267 41.1573 9.592 40.8493 10.208C40.5506 10.8147 40.1399 11.286 39.6173 11.622C39.0946 11.9487 38.5113 12.112 37.8673 12.112C37.3166 12.112 36.8359 12.0047 36.4253 11.79C36.0146 11.566 35.6926 11.272 35.4593 10.908V12H33.0653V1.64H35.4593V5.294ZM38.8753 8.08C38.8753 7.48267 38.7073 7.016 38.3713 6.68C38.0446 6.33467 37.6386 6.162 37.1533 6.162C36.6773 6.162 36.2713 6.33467 35.9353 6.68C35.6086 7.02533 35.4453 7.49667 35.4453 8.094C35.4453 8.69133 35.6086 9.16267 35.9353 9.508C36.2713 9.85333 36.6773 10.026 37.1533 10.026C37.6293 10.026 38.0353 9.85333 38.3713 9.508C38.7073 9.15333 38.8753 8.67733 38.8753 8.08ZM46.1232 12.112C45.3579 12.112 44.6672 11.9487 44.0512 11.622C43.4446 11.2953 42.9639 10.8287 42.6092 10.222C42.2639 9.61533 42.0912 8.906 42.0912 8.094C42.0912 7.29133 42.2686 6.58667 42.6232 5.98C42.9779 5.364 43.4632 4.89267 44.0792 4.566C44.6952 4.23933 45.3859 4.076 46.1512 4.076C46.9166 4.076 47.6072 4.23933 48.2232 4.566C48.8392 4.89267 49.3246 5.364 49.6792 5.98C50.0339 6.58667 50.2112 7.29133 50.2112 8.094C50.2112 8.89667 50.0292 9.606 49.6652 10.222C49.3106 10.8287 48.8206 11.2953 48.1952 11.622C47.5792 11.9487 46.8886 12.112 46.1232 12.112ZM46.1232 10.04C46.5806 10.04 46.9679 9.872 47.2852 9.536C47.6119 9.2 47.7752 8.71933 47.7752 8.094C47.7752 7.46867 47.6166 6.988 47.2992 6.652C46.9912 6.316 46.6086 6.148 46.1512 6.148C45.6846 6.148 45.2972 6.316 44.9892 6.652C44.6812 6.97867 44.5272 7.45933 44.5272 8.094C44.5272 8.71933 44.6766 9.2 44.9752 9.536C45.2832 9.872 45.6659 10.04 46.1232 10.04ZM62.6953 4.188L60.5813 12H57.9353L56.7033 6.932L55.4293 12H52.7973L50.6693 4.188H53.0633L54.1693 9.774L55.4853 4.188H58.0193L59.3493 9.746L60.4413 4.188H62.6953ZM63.2022 7.072C63.2022 6.10133 63.4122 5.238 63.8322 4.482C64.2522 3.71667 64.8356 3.124 65.5822 2.704C66.3382 2.27467 67.1922 2.06 68.1442 2.06C69.3109 2.06 70.3096 2.368 71.1402 2.984C71.9709 3.6 72.5262 4.44 72.8062 5.504H70.1742C69.9782 5.09333 69.6982 4.78067 69.3342 4.566C68.9796 4.35133 68.5736 4.244 68.1162 4.244C67.3789 4.244 66.7816 4.50067 66.3242 5.014C65.8669 5.52733 65.6382 6.21333 65.6382 7.072C65.6382 7.93067 65.8669 8.61667 66.3242 9.13C66.7816 9.64333 67.3789 9.9 68.1162 9.9C68.5736 9.9 68.9796 9.79267 69.3342 9.578C69.6982 9.36333 69.9782 9.05067 70.1742 8.64H72.8062C72.5262 9.704 71.9709 10.544 71.1402 11.16C70.3096 11.7667 69.3109 12.07 68.1442 12.07C67.1922 12.07 66.3382 11.86 65.5822 11.44C64.8356 11.0107 64.2522 10.418 63.8322 9.662C63.4122 8.906 63.2022 8.04267 63.2022 7.072ZM73.7963 8.08C73.7963 7.27733 73.9456 6.57267 74.2443 5.966C74.5523 5.35933 74.9676 4.89267 75.4903 4.566C76.013 4.23933 76.5963 4.076 77.2403 4.076C77.791 4.076 78.2716 4.188 78.6823 4.412C79.1023 4.636 79.4243 4.93 79.6483 5.294V4.188H82.0423V12H79.6483V10.894C79.415 11.258 79.0883 11.552 78.6683 11.776C78.2576 12 77.777 12.112 77.2263 12.112C76.5916 12.112 76.013 11.9487 75.4903 11.622C74.9676 11.286 74.5523 10.8147 74.2443 10.208C73.9456 9.592 73.7963 8.88267 73.7963 8.08ZM79.6483 8.094C79.6483 7.49667 79.4803 7.02533 79.1443 6.68C78.8176 6.33467 78.4163 6.162 77.9403 6.162C77.4643 6.162 77.0583 6.33467 76.7223 6.68C76.3956 7.016 76.2323 7.48267 76.2323 8.08C76.2323 8.67733 76.3956 9.15333 76.7223 9.508C77.0583 9.85333 77.4643 10.026 77.9403 10.026C78.4163 10.026 78.8176 9.85333 79.1443 9.508C79.4803 9.16267 79.6483 8.69133 79.6483 8.094ZM86.1683 5.49C86.4483 5.06067 86.7983 4.72467 87.2183 4.482C87.6383 4.23 88.1049 4.104 88.6183 4.104V6.638H87.9603C87.3629 6.638 86.9149 6.76867 86.6163 7.03C86.3176 7.282 86.1683 7.73 86.1683 8.374V12H83.7743V4.188H86.1683V5.49ZM89.2865 8.08C89.2865 7.27733 89.4359 6.57267 89.7345 5.966C90.0425 5.35933 90.4579 4.89267 90.9805 4.566C91.5032 4.23933 92.0865 4.076 92.7305 4.076C93.2439 4.076 93.7105 4.18333 94.1305 4.398C94.5599 4.61267 94.8959 4.902 95.1385 5.266V1.64H97.5325V12H95.1385V10.88C94.9145 11.2533 94.5925 11.552 94.1725 11.776C93.7619 12 93.2812 12.112 92.7305 12.112C92.0865 12.112 91.5032 11.9487 90.9805 11.622C90.4579 11.286 90.0425 10.8147 89.7345 10.208C89.4359 9.592 89.2865 8.88267 89.2865 8.08ZM95.1385 8.094C95.1385 7.49667 94.9705 7.02533 94.6345 6.68C94.3079 6.33467 93.9065 6.162 93.4305 6.162C92.9545 6.162 92.5485 6.33467 92.2125 6.68C91.8859 7.016 91.7225 7.48267 91.7225 8.08C91.7225 8.67733 91.8859 9.15333 92.2125 9.508C92.5485 9.85333 92.9545 10.026 93.4305 10.026C93.9065 10.026 94.3079 9.85333 94.6345 9.508C94.9705 9.16267 95.1385 8.69133 95.1385 8.094Z" fill="#EC368D"/>
</svg>
